<?xml version="1.0" encoding="UTF-8" standalone="no"?>
<!-- Created with Inkscape (http://www.inkscape.org/) -->

<svg
   xmlns:dc="http://purl.org/dc/elements/1.1/"
   xmlns:cc="http://creativecommons.org/ns#"
   xmlns:rdf="http://www.w3.org/1999/02/22-rdf-syntax-ns#"
   xmlns:svg="http://www.w3.org/2000/svg"
   xmlns="http://www.w3.org/2000/svg"
   xmlns:sodipodi="http://sodipodi.sourceforge.net/DTD/sodipodi-0.dtd"
   xmlns:inkscape="http://www.inkscape.org/namespaces/inkscape"
   version="1.1"
   id="svg14349"
   xml:space="preserve"
   width="1066.6667"
   height="1066.6667"
   viewBox="0 0 1066.6667 1066.6667"
   sodipodi:docname="baseball-color-silhouette-publicdomainvectors.org.svg"
   inkscape:version="0.92.4 (5da689c313, 2019-01-14)"><metadata
     id="metadata14355"><rdf:RDF><cc:Work
         rdf:about=""><dc:format>image/svg+xml</dc:format><dc:type
           rdf:resource="http://purl.org/dc/dcmitype/StillImage" /><dc:title></dc:title></cc:Work></rdf:RDF></metadata><defs
     id="defs14353"><clipPath
       clipPathUnits="userSpaceOnUse"
       id="clipPath14365"><path
         d="M 0,800 H 800 V 0 H 0 Z"
         id="path14363"
         inkscape:connector-curvature="0" /></clipPath></defs><sodipodi:namedview
     pagecolor="#ffffff"
     bordercolor="#666666"
     borderopacity="1"
     objecttolerance="10"
     gridtolerance="10"
     guidetolerance="10"
     inkscape:pageopacity="0"
     inkscape:pageshadow="2"
     inkscape:window-width="797"
     inkscape:window-height="480"
     id="namedview14351"
     showgrid="false"
     inkscape:zoom="0.22124998"
     inkscape:cx="533.33337"
     inkscape:cy="533.33337"
     inkscape:window-x="0"
     inkscape:window-y="0"
     inkscape:window-maximized="0"
     inkscape:current-layer="g14357" /><g
     id="g14357"
     inkscape:groupmode="layer"
     inkscape:label="baseball-color-silhouette-publicdomainvectors.org"
     transform="matrix(1.3333333,0,0,-1.3333333,0,1066.6667)"><g
       id="g14359"><g
         id="g14361"
         clip-path="url(#clipPath14365)"><path
           d="m 529.184,702.953 -4.682,-1.023 5.492,-7.976 z"
           style="fill:#0640cc;fill-opacity:1;fill-rule:nonzero;stroke:none"
           id="path14367"
           inkscape:connector-curvature="0" /><path
           d="m 628.38,761.669 -13.755,7.191 -16.326,6.174 -14.111,-1.322 c 0,0 -11.907,-2.646 -14.114,-5.291 -2.206,-2.649 -11.468,-11.91 -11.468,-11.91 0,0 -0.106,-0.486 -0.278,-1.274 l 41.268,-68.332 z"
           style="fill:#0055c8;fill-opacity:1;fill-rule:nonzero;stroke:none"
           id="path14369"
           inkscape:connector-curvature="0" /><path
           d="m 599.596,686.905 -41.268,68.332 c -0.681,-3.118 -2.366,-10.988 -2.366,-12.399 0,-1.763 -1.318,-10.584 -1.318,-10.584 l -6.617,-5.734 c 0,0 -3.533,-7.495 -2.205,-10.584 1.318,-3.089 -1.328,-7.938 -1.328,-7.938 l -8.382,-3.529 -6.928,-1.516 0.81,-8.999 z"
           style="fill:#006ad4;fill-opacity:1;fill-rule:nonzero;stroke:none"
           id="path14371"
           inkscape:connector-curvature="0" /><path
           d="m 524.502,701.93 -16.615,-3.634 -3.581,-1.344 25.688,-2.998 z"
           style="fill:#5a9ac4;fill-opacity:1;fill-rule:nonzero;stroke:none"
           id="path14373"
           inkscape:connector-curvature="0" /><path
           d="m 625.021,686.264 1.511,10.265 2.644,8.823 3.972,7.495 10.581,-10.141 3.09,-0.442 c 0,0 -0.884,7.055 -1.324,8.821 -0.439,1.762 -8.382,8.379 -8.382,8.379 l -3.525,3.088 c 0,0 1.766,12.348 1.766,15.875 0,3.531 -1.327,20.289 -1.327,20.289 l -5.647,2.953 -28.784,-74.764 z"
           style="fill:#0063c3;fill-opacity:1;fill-rule:nonzero;stroke:none"
           id="path14375"
           inkscape:connector-curvature="0" /><path
           d="m 529.994,693.954 -25.688,2.998 -17.586,-6.596 -18.084,-12.35 -26.374,-17.308 9.32,-18.726 z"
           style="fill:#6fc9cd;fill-opacity:1;fill-rule:nonzero;stroke:none"
           id="path14377"
           inkscape:connector-curvature="0" /><path
           d="m 661.557,606.175 2.021,8.762 -6.177,-4.412 -6.176,8.822 -14.818,17.291 -31.818,-22.271 z"
           style="fill:#0074ce;fill-opacity:1;fill-rule:nonzero;stroke:none"
           id="path14379"
           inkscape:connector-curvature="0" /><path
           d="m 636.407,636.638 -11.641,13.583 -8.823,1.762 -9.702,-5.29 -3.657,-3.201 2.005,-29.125 z"
           style="fill:#007fd1;fill-opacity:1;fill-rule:nonzero;stroke:none"
           id="path14381"
           inkscape:connector-curvature="0" /><path
           d="m 602.005,651.897 3.799,-0.353 1.758,6.173 6.616,12.79 10.147,11.027 0.696,4.73 -25.425,0.641 z"
           style="fill:#007fd1;fill-opacity:1;fill-rule:nonzero;stroke:none"
           id="path14383"
           inkscape:connector-curvature="0" /><path
           d="m 442.262,660.698 -1.85,-1.216 -13.471,-7.77 24.641,-9.74 z"
           style="fill:#abc38d;fill-opacity:1;fill-rule:nonzero;stroke:none"
           id="path14385"
           inkscape:connector-curvature="0" /><path
           d="m 426.941,651.712 -20.931,-12.074 -22.936,-22.053 -9.824,-10.762 78.332,35.149 z"
           style="fill:#c8c46e;fill-opacity:1;fill-rule:nonzero;stroke:none"
           id="path14387"
           inkscape:connector-curvature="0" /><path
           d="m 602.584,643.492 -3.397,-2.972 -0.888,-14.999 v -10.73 l 6.29,-0.424 z"
           style="fill:#0097de;fill-opacity:1;fill-rule:nonzero;stroke:none"
           id="path14389"
           inkscape:connector-curvature="0" /><path
           d="m 534.986,619.065 37.685,-2.544 c -0.052,3.418 -0.161,7.202 -0.39,8.12 -0.44,1.763 0.439,12.346 0.439,12.346 l 4.85,5.735 9.261,10.584 15.174,-1.409 -2.409,35.008 z"
           style="fill:#0097de;fill-opacity:1;fill-rule:nonzero;stroke:none"
           id="path14391"
           inkscape:connector-curvature="0" /><path
           d="m 599.596,686.905 -69.602,7.049 4.992,-74.889 z"
           style="fill:#008cde;fill-opacity:1;fill-rule:nonzero;stroke:none"
           id="path14393"
           inkscape:connector-curvature="0" /><path
           d="m 529.994,693.954 -78.412,-51.982 83.404,-22.907 z"
           style="fill:#1ca0e2;fill-opacity:1;fill-rule:nonzero;stroke:none"
           id="path14395"
           inkscape:connector-curvature="0" /><path
           d="m 732.382,418.233 -0.697,1.078 -0.493,-1.375 z"
           style="fill:#ac8c98;fill-opacity:1;fill-rule:nonzero;stroke:none"
           id="path14397"
           inkscape:connector-curvature="0" /><path
           d="m 470.084,538.597 -116.553,45.541 c -0.747,-1.045 -1.242,-1.859 -1.326,-2.277 -0.212,-1.048 -3.702,-4.381 -7.31,-7.594 l 33.267,-69.149 z"
           style="fill:#dae266;fill-opacity:1;fill-rule:nonzero;stroke:none"
           id="path14399"
           inkscape:connector-curvature="0" /><path
           d="m 635.426,552.694 13.12,10.835 1.8,2.012 12.346,28.227 -1.759,9.702 0.624,2.705 -56.968,8.192 z"
           style="fill:#008ad9;fill-opacity:1;fill-rule:nonzero;stroke:none"
           id="path14401"
           inkscape:connector-curvature="0" /><path
           d="m 451.582,641.972 18.502,-103.375 64.902,80.468 z"
           style="fill:#76e0e0;fill-opacity:1;fill-rule:nonzero;stroke:none"
           id="path14403"
           inkscape:connector-curvature="0" /><path
           d="m 451.582,641.972 -78.332,-35.149 -8.699,-9.528 c 0,0 -7.821,-8.69 -11.02,-13.157 l 116.553,-45.541 z"
           style="fill:#b1df7d;fill-opacity:1;fill-rule:nonzero;stroke:none"
           id="path14405"
           inkscape:connector-curvature="0" /><path
           d="m 269.632,510.018 c -0.767,-3.822 -1.863,-9.616 -3.096,-16.368 l 19.998,0.601 z"
           style="fill:#df2300;fill-opacity:1;fill-rule:nonzero;stroke:none"
           id="path14407"
           inkscape:connector-curvature="0" /><path
           d="m 604.589,614.367 -6.29,0.424 v -6.028 l -0.878,-11.468 -7.057,-8.819 -3.614,-3.617 48.676,-32.165 z"
           style="fill:#009be2;fill-opacity:1;fill-rule:nonzero;stroke:none"
           id="path14409"
           inkscape:connector-curvature="0" /><path
           d="m 582.535,587.645 -5.843,6.123 -3.972,16.757 c 0,0 0,2.843 -0.049,5.996 l -37.685,2.544 z"
           style="fill:#009be2;fill-opacity:1;fill-rule:nonzero;stroke:none"
           id="path14411"
           inkscape:connector-curvature="0" /><path
           d="m 517.343,532.432 c 1.886,0.838 3.405,1.355 4.22,1.355 3.53,0 12.351,3.528 17.642,3.528 2.498,0 13.457,-9.641 24.329,-19.817 l 71.892,35.196 -48.676,32.165 -0.797,-0.796 -3.418,3.582 -47.549,31.42 z"
           style="fill:#1ab6ec;fill-opacity:1;fill-rule:nonzero;stroke:none"
           id="path14413"
           inkscape:connector-curvature="0" /><path
           d="m 284.771,538.654 c -4.298,-5.742 -12.427,-15.885 -14.603,-26.035 -0.152,-0.716 -0.333,-1.59 -0.536,-2.601 l 16.902,-15.767 z"
           style="fill:#dc2b00;fill-opacity:1;fill-rule:nonzero;stroke:none"
           id="path14415"
           inkscape:connector-curvature="0" /><path
           d="m 321.219,560.395 -8.266,-3.674 -14.557,-7.06 -11.468,-7.934 c -0.471,-0.786 -1.226,-1.829 -2.157,-3.073 l 1.763,-44.403 z"
           style="fill:#df5f00;fill-opacity:1;fill-rule:nonzero;stroke:none"
           id="path14417"
           inkscape:connector-curvature="0" /><path
           d="m 470.084,538.597 20.247,-25.003 c 4.305,3.334 7.537,5.948 8.297,6.961 2.035,2.712 12.424,9.082 18.715,11.877 l 17.643,86.633 z"
           style="fill:#6bd7ef;fill-opacity:1;fill-rule:nonzero;stroke:none"
           id="path14419"
           inkscape:connector-curvature="0" /><path
           d="m 638.605,552.42 9.941,11.109 -13.12,-10.835 z"
           style="fill:#0075d4;fill-opacity:1;fill-rule:nonzero;stroke:none"
           id="path14421"
           inkscape:connector-curvature="0" /><path
           d="m 378.162,505.118 -33.267,69.149 c -3.992,-3.555 -8.128,-6.961 -8.128,-6.961 l -15.548,-6.911 -34.685,-66.144 z"
           style="fill:#e88202;fill-opacity:1;fill-rule:nonzero;stroke:none"
           id="path14423"
           inkscape:connector-curvature="0" /><path
           d="m 378.162,505.118 67.252,-44.346 1.444,4.553 -2.915,5.832 c 0,0 3.371,3.372 7.092,7.348 l 19.049,60.092 z"
           style="fill:#dcf07e;fill-opacity:1;fill-rule:nonzero;stroke:none"
           id="path14425"
           inkscape:connector-curvature="0" /><path
           d="m 563.534,517.498 c 12.147,-11.37 24.185,-23.406 24.185,-23.406 l 34.233,-24.37 8.622,53.095 -1.398,1.265 -8.822,7.94 14.312,15.994 0.76,4.678 z"
           style="fill:#35bfed;fill-opacity:1;fill-rule:nonzero;stroke:none"
           id="path14427"
           inkscape:connector-curvature="0" /><path
           d="m 637.094,550.73 1.511,1.69 -3.179,0.274 z"
           style="fill:#0069d5;fill-opacity:1;fill-rule:nonzero;stroke:none"
           id="path14429"
           inkscape:connector-curvature="0" /><path
           d="m 639.759,457.045 29.11,-7.941 4.411,-16.756 8.822,0.881 1.764,10.584 24.98,-14.461 14.917,2.196 -10.791,16.675 -13.234,14.995 -24.693,19.407 -44.471,40.192 -8.622,-53.095 z"
           style="fill:#0783dd;fill-opacity:1;fill-rule:nonzero;stroke:none"
           id="path14431"
           inkscape:connector-curvature="0" /><path
           d="m 634.666,548.016 2.428,2.714 -1.668,1.964 z"
           style="fill:#0783dd;fill-opacity:1;fill-rule:nonzero;stroke:none"
           id="path14433"
           inkscape:connector-curvature="0" /><path
           d="m 378.162,505.118 -91.628,-10.867 74.301,-37.59 z"
           style="fill:#f38800;fill-opacity:1;fill-rule:nonzero;stroke:none"
           id="path14435"
           inkscape:connector-curvature="0" /><path
           d="m 451.035,478.505 c 3.402,3.633 7.096,7.768 8.779,10.296 2.518,3.772 19.829,16.511 30.517,24.793 l -20.247,25.003 z"
           style="fill:#b9f3bd;fill-opacity:1;fill-rule:nonzero;stroke:none"
           id="path14437"
           inkscape:connector-curvature="0" /><path
           d="m 448.424,462.193 -1.566,3.132 -1.444,-4.553 z"
           style="fill:#b9f3bd;fill-opacity:1;fill-rule:nonzero;stroke:none"
           id="path14439"
           inkscape:connector-curvature="0" /><path
           d="m 260.567,459.231 c -1.072,-6.579 -2.007,-12.643 -2.66,-17.432 l 42.43,5.17 z"
           style="fill:#ef3500;fill-opacity:1;fill-rule:nonzero;stroke:none"
           id="path14441"
           inkscape:connector-curvature="0" /><path
           d="m 286.534,494.251 -19.998,-0.601 c -1.908,-10.449 -4.138,-23.184 -5.969,-34.419 l 39.77,-12.262 z"
           style="fill:#f43900;fill-opacity:1;fill-rule:nonzero;stroke:none"
           id="path14443"
           inkscape:connector-curvature="0" /><path
           d="m 286.534,494.251 13.803,-47.282 60.498,9.692 z"
           style="fill:#f77700;fill-opacity:1;fill-rule:nonzero;stroke:none"
           id="path14445"
           inkscape:connector-curvature="0" /><path
           d="m 445.414,460.772 -67.252,44.346 -17.327,-48.457 z"
           style="fill:#f2da4e;fill-opacity:1;fill-rule:nonzero;stroke:none"
           id="path14447"
           inkscape:connector-curvature="0" /><path
           d="m 267.739,346.531 32.598,100.438 -42.43,-5.17 c -0.608,-4.463 -0.971,-7.818 -0.971,-9.451 0,-8.822 -7.935,-58.214 -6.169,-64.392 0.502,-1.765 -0.22,-4.972 -1.589,-8.671 z"
           style="fill:#fb6100;fill-opacity:1;fill-rule:nonzero;stroke:none"
           id="path14449"
           inkscape:connector-curvature="0" /><path
           d="m 472.563,377.979 c -0.203,11.843 -0.396,22.614 -0.396,22.614 0,0 -6.176,22.933 -8.822,26.463 -2.645,3.527 -14.113,33.516 -14.113,33.516 l -0.808,1.621 -3.01,-1.421 z"
           style="fill:#d8f892;fill-opacity:1;fill-rule:nonzero;stroke:none"
           id="path14451"
           inkscape:connector-curvature="0" /><path
           d="m 249.178,359.285 c -1.712,-4.626 -4.435,-10.021 -7.047,-14.34 l 25.608,1.586 z"
           style="fill:#f55a00;fill-opacity:1;fill-rule:nonzero;stroke:none"
           id="path14453"
           inkscape:connector-curvature="0" /><path
           d="m 717.382,424.41 4.412,-8.822 9.398,2.348 0.493,1.375 -7.922,12.237 -14.917,-2.196 z"
           style="fill:#6eb0c4;fill-opacity:1;fill-rule:nonzero;stroke:none"
           id="path14455"
           inkscape:connector-curvature="0" /><path
           d="m 348.532,388.142 c 6.396,7.234 13.375,14.212 13.375,14.212 l 31.757,-36.163 c 0,0 2.803,-5.741 6.436,-13.274 l 72.605,16.852 c -0.014,0.787 -0.027,1.579 -0.04,2.373 l -111.83,84.519 z"
           style="fill:#ffd200;fill-opacity:1;fill-rule:nonzero;stroke:none"
           id="path14457"
           inkscape:connector-curvature="0" /><path
           d="m 360.835,456.661 111.83,-84.519 c -0.033,1.947 -0.066,3.906 -0.102,5.837 l -27.149,82.793 z"
           style="fill:#f9ed33;fill-opacity:1;fill-rule:nonzero;stroke:none"
           id="path14459"
           inkscape:connector-curvature="0" /><path
           d="m 300.337,446.969 29.867,-82.022 c 3.928,4.878 7.881,9.805 10.534,13.594 1.961,2.803 4.814,6.23 7.794,9.601 l 12.303,68.519 z"
           style="fill:#fd9d00;fill-opacity:1;fill-rule:nonzero;stroke:none"
           id="path14461"
           inkscape:connector-curvature="0" /><path
           d="m 267.739,346.531 46.446,-4.929 c 1.229,2.562 2.423,4.856 3.619,6.948 2.011,3.521 7.182,9.916 12.4,16.397 l -29.867,82.022 z"
           style="fill:#ff9300;fill-opacity:1;fill-rule:nonzero;stroke:none"
           id="path14463"
           inkscape:connector-curvature="0" /><path
           d="m 415.711,319.439 c 1.41,-3.518 3.238,-16.862 4.929,-31.634 l 26.538,-16.749 25.651,91.27 c -0.038,2.36 -0.081,4.873 -0.124,7.443 L 400.1,352.917 c 5.707,-11.833 13.457,-28.088 15.611,-33.478"
           style="fill:#ffcf00;fill-opacity:1;fill-rule:nonzero;stroke:none"
           id="path14465"
           inkscape:connector-curvature="0" /><path
           d="m 490.492,259.847 c -0.211,16.671 -0.686,33.133 -0.686,33.133 l -4.027,8.858 -38.601,-30.782 z"
           style="fill:#f0d040;fill-opacity:1;fill-rule:nonzero;stroke:none"
           id="path14467"
           inkscape:connector-curvature="0" /><path
           d="m 485.779,301.838 -9.2,20.249 c 0,0 -3.532,22.052 -3.532,25.581 0,1.144 -0.092,7.114 -0.218,14.658 l -25.651,-91.27 z"
           style="fill:#f6e63e;fill-opacity:1;fill-rule:nonzero;stroke:none"
           id="path14469"
           inkscape:connector-curvature="0" /><path
           d="m 242.131,344.945 c -2.609,-4.311 -5.103,-7.548 -6.364,-7.863 -2.469,-0.617 -16.197,-15.521 -24.197,-24.392 l 40.123,-33.357 c 5.772,3.37 12.764,5.592 17.598,8.354 4.85,2.772 3.71,2.275 5.143,3.65 l -6.695,55.194 z"
           style="fill:#fb6800;fill-opacity:1;fill-rule:nonzero;stroke:none"
           id="path14471"
           inkscape:connector-curvature="0" /><path
           d="m 420.64,287.805 c 1.321,-11.559 2.557,-23.992 3.44,-33.272 l 23.098,16.523 z"
           style="fill:#feb200;fill-opacity:1;fill-rule:nonzero;stroke:none"
           id="path14473"
           inkscape:connector-curvature="0" /><path
           d="M 205.778,306.21 189.9,293.86 c 0,0 -7.937,-14.113 -8.822,-20.29 -0.88,-6.173 5.297,-20.285 5.297,-20.285 l 0.448,-6.745 48.288,5.481 c 0.328,6.486 -0.455,6.763 4.188,14.495 5.292,8.82 1.759,4.41 7.937,9.704 1.344,1.15 2.853,2.176 4.457,3.113 L 211.57,312.69 c -3.419,-3.791 -5.792,-6.48 -5.792,-6.48"
           style="fill:#f35c00;fill-opacity:1;fill-rule:nonzero;stroke:none"
           id="path14475"
           inkscape:connector-curvature="0" /><path
           d="m 274.434,291.337 c 0.39,0.374 0.969,0.886 1.912,1.64 4.412,3.528 13.226,11.467 13.226,11.467 0,0 12.354,7.06 16.765,18.523 2.918,7.586 5.447,13.626 7.848,18.635 l -46.446,4.929 z"
           style="fill:#ff8500;fill-opacity:1;fill-rule:nonzero;stroke:none"
           id="path14477"
           inkscape:connector-curvature="0" /><path
           d="m 187.254,240.052 c 0,0 16.758,-22.051 18.524,-26.463 1.419,-3.545 11.969,-21.357 18.339,-29.569 l 25.697,34.399 c -1.896,3.207 -4.29,6.676 -7.869,12.813 -6.178,10.586 -7.943,7.941 -7.056,17.641 0.108,1.198 0.176,2.234 0.222,3.148 l -48.288,-5.481 z"
           style="fill:#f04f00;fill-opacity:1;fill-rule:nonzero;stroke:none"
           id="path14479"
           inkscape:connector-curvature="0" /><path
           d="m 227.832,180.071 c 4.41,-2.644 10.582,-9.702 14.991,-5.291 4.413,4.411 10.589,7.939 12.348,14.995 1.765,7.057 0.886,14.113 -1.759,21.169 -1.112,2.964 -2.224,5.151 -3.598,7.475 L 224.117,184.02 c 1.549,-1.998 2.852,-3.431 3.715,-3.949"
           style="fill:#f64e00;fill-opacity:1;fill-rule:nonzero;stroke:none"
           id="path14481"
           inkscape:connector-curvature="0" /><path
           d="m 446.636,172.24 1.154,-7.511 52.64,37.961 c -1.67,4.57 -3.359,8.567 -4.449,10.021 -2.645,3.527 -7.935,7.055 -6.175,13.227 0.846,2.965 0.881,18.526 0.686,33.909 l -43.314,11.209 z"
           style="fill:#fb9b00;fill-opacity:1;fill-rule:nonzero;stroke:none"
           id="path14483"
           inkscape:connector-curvature="0" /><path
           d="m 424.08,254.533 c 0.818,-8.591 1.334,-14.481 1.334,-14.481 l 11.466,-37.046 8.822,-24.696 0.934,-6.07 0.542,98.816 z"
           style="fill:#ffa300;fill-opacity:1;fill-rule:nonzero;stroke:none"
           id="path14485"
           inkscape:connector-curvature="0" /><path
           d="m 448.012,163.292 56.617,-22.679 c -0.257,7.012 -0.712,16.524 -0.712,16.524 0,0 -8.814,6.175 -5.289,8.822 3.53,2.645 7.941,14.112 7.055,19.405 -0.518,3.115 -2.868,10.802 -5.253,17.326 l -52.64,-37.961 z"
           style="fill:#f56400;fill-opacity:1;fill-rule:nonzero;stroke:none"
           id="path14487"
           inkscape:connector-curvature="0" /><path
           d="m 450.993,143.91 0.884,-22.055 c 0,0 1.768,-15.877 6.178,-17.642 4.404,-1.761 22.047,-14.993 22.047,-14.993 0,0 0.84,-0.44 2.227,-1.097 l 38.667,19.626 c -4.35,5.134 -10.275,11.606 -10.901,14.106 -0.879,3.532 -5.292,7.943 -5.292,12.354 0,1.248 -0.072,3.631 -0.174,6.404 l -56.617,22.679 z"
           style="fill:#fc6200;fill-opacity:1;fill-rule:nonzero;stroke:none"
           id="path14489"
           inkscape:connector-curvature="0" /><path
           d="m 505.683,83.043 c 7.057,3.524 23.821,6.177 23.821,6.177 0,0 -1.767,8.821 -4.411,13.232 -0.777,1.288 -2.303,3.179 -4.097,5.297 L 482.329,88.123 c 5.136,-2.433 17.799,-7.855 23.354,-5.08"
           style="fill:#f23700;fill-opacity:1;fill-rule:nonzero;stroke:none"
           id="path14491"
           inkscape:connector-curvature="0" /></g></g></g></svg>